<svg width="122" height="99" viewBox="0 0 122 99" fill="none" xmlns="http://www.w3.org/2000/svg">
<path d="M56.3619 90.0009H75.2076L81.3447 61.9145L88.6798 90.0009H109.011L121.957 31.1869V69.4317C121.957 85.28 109.11 98.1276 93.2616 98.1276H7.17397C3.2119 98.1276 0 94.9157 0 90.9537V36.4343C0 36.2635 0.011632 36.0931 0.0140117 35.9229H6.95679V90.0009H27.1056V35.9229H41.0612V25.7084L56.3619 90.0009Z" fill="#2563EB"/>
<path d="M107.61 0.564453C115.534 0.564454 121.957 6.98824 121.957 14.9124V20.1177H106.271L102.747 44.2108L99.4688 67.5822L94.2214 44.2108L89.9338 20.1177H70.4366L75.0254 37.8285L73.4771 44.2108L67.4521 67.5822L62.7442 44.2108L59.5846 20.1177H3.93027C9.87057 8.51289 21.9375 0.564453 35.8698 0.564453H107.61Z" fill="#F59E0B"/>
</svg>
