<svg width="479" height="112" viewBox="0 0 479 112" fill="none" xmlns="http://www.w3.org/2000/svg">
<path d="M471.842 75.8665C475.79 75.8665 478.991 79.0672 478.991 83.0156V104.463C478.991 108.411 475.79 111.612 471.842 111.612H142.982C139.034 111.612 135.833 108.411 135.833 104.463V83.0156C135.833 79.0672 139.034 75.8665 142.982 75.8665H471.842ZM196.007 79.7971C193.172 79.7971 190.991 80.6917 189.466 82.478C187.964 84.2412 187.211 86.6251 187.211 89.6271V94.954C187.211 97.9801 187.965 100.386 189.466 102.173C190.991 103.936 193.171 104.819 196.007 104.819C198.842 104.819 201.013 103.936 202.514 102.173C204.038 100.386 204.797 97.979 204.797 94.954V89.6271C204.797 86.6255 204.039 84.2411 202.514 82.478C201.013 80.6911 198.842 79.7974 196.007 79.7971ZM291.578 79.7971C289.816 79.7974 288.387 80.0955 287.291 80.6907C286.219 81.2862 285.432 82.0851 284.931 83.0854C284.455 84.0863 284.219 85.2113 284.219 86.4505C284.22 88.0689 284.647 89.4366 285.504 90.5557C286.362 91.6515 287.694 92.479 289.504 93.0271L292.402 93.8789C293.664 94.26 294.569 94.812 295.118 95.5265C295.689 96.2414 295.976 97.124 295.976 98.1725C295.976 99.4352 295.572 100.403 294.761 101.07C293.951 101.713 292.792 102.033 291.292 102.033C290.268 102.033 289.243 101.915 288.22 101.677C287.22 101.439 286.088 101.034 284.827 100.462L283.856 103.102C285.19 103.697 286.479 104.142 287.717 104.428C288.979 104.69 290.172 104.819 291.292 104.819C294.031 104.819 296.022 104.189 297.261 102.927C298.5 101.64 299.125 99.9706 299.125 97.9212C299.125 94.3706 297.308 92.0609 293.686 90.9885L290.796 90.1298C289.511 89.7251 288.616 89.2125 288.115 88.5938C287.615 87.9507 287.361 87.1629 287.361 86.2341C287.361 84.9479 287.733 84.0315 288.471 83.4833C289.234 82.9114 290.296 82.6246 291.655 82.6246C292.487 82.6249 293.355 82.743 294.259 82.9807C295.188 83.1951 296.229 83.5484 297.373 84.0488L298.371 81.3679C297.205 80.821 296.05 80.4333 294.908 80.195C293.764 79.9329 292.65 79.7971 291.578 79.7971ZM428.828 79.7971C425.993 79.7971 423.812 80.6917 422.287 82.478C420.786 84.2412 420.032 86.6251 420.032 89.6271V94.954C420.032 97.9801 420.786 100.386 422.287 102.173C423.812 103.936 425.993 104.819 428.828 104.819C431.663 104.819 433.834 103.936 435.335 102.173C436.859 100.386 437.618 97.979 437.618 94.954V89.6271C437.618 86.6255 436.86 84.2411 435.335 82.478C433.834 80.6911 431.663 79.7974 428.828 79.7971ZM144.267 80.1531L149.594 104.463H152.777L158.356 84.5864L163.927 104.463H167.076L172.438 80.1531H169.366L167.25 90.4509L165.463 100.176L159.857 80.1531H156.959L151.346 100.281L149.629 90.4509L147.52 80.1531H144.267ZM222.118 104.463H225.225V94.954H230.084C231.895 98.0516 233.48 101.222 234.839 104.463H238.413C237.675 102.748 236.865 101.044 235.984 99.3524C235.102 97.6607 234.153 95.9907 233.128 94.3466C234.343 93.8462 235.271 93.0697 235.914 92.0218C236.58 90.9739 236.912 89.7362 236.912 88.3076V86.7717C236.912 84.7707 236.282 83.1737 235.02 81.9823C233.781 80.767 232.016 80.1531 229.728 80.1531H222.118V104.463ZM254.31 104.463H257.417V96.2386C257.989 95.6908 258.541 95.1458 259.065 94.598C259.613 94.0501 260.135 93.5093 260.636 92.9852L267.568 104.463H271.359L262.926 90.9536C264.403 89.2621 265.713 87.5695 266.856 85.878C268.024 84.1622 269.142 82.2502 270.214 80.1531H266.856C265.808 82.25 264.531 84.3134 263.03 86.3388C261.529 88.3644 259.657 90.5119 257.417 92.7758V80.1531H254.31V104.463ZM311.81 83.0854H318.883V104.463H321.997V83.0854H329.076V80.1531H311.81V83.0854ZM338.668 104.463H341.705L343.528 98.8148H352.75L354.572 104.463H357.791L349.671 80.1531H346.746L338.668 104.463ZM367.398 83.0854H374.47V104.463H377.584V83.0854H384.663V80.1531H367.398V83.0854ZM399.631 104.463H402.738V80.1531H399.631V104.463ZM454.939 104.463H457.976V94.5282L457.76 84.6213C459.857 87.7669 461.791 90.9993 463.555 94.3117C465.342 97.5998 467.067 100.984 468.735 104.463H471.988V80.1531H468.951V90.0251L469.307 99.3175C467.711 95.9104 465.997 92.6436 464.162 89.5224C462.351 86.3768 460.361 83.2511 458.193 80.1531H454.939V104.463ZM196.007 82.6944C197.841 82.6948 199.225 83.3016 200.154 84.5166C201.107 85.7078 201.578 87.4121 201.579 89.6271V94.954C201.579 97.1922 201.106 98.9192 200.154 100.134C199.225 101.349 197.841 101.963 196.007 101.964C194.196 101.964 192.813 101.35 191.86 100.134C190.908 98.9191 190.429 97.1931 190.429 94.954V89.6271C190.429 87.4116 190.907 85.7079 191.86 84.5166C192.813 83.3017 194.197 82.6944 196.007 82.6944ZM428.828 82.6944C430.662 82.6948 432.046 83.3016 432.975 84.5166C433.928 85.7078 434.399 87.4121 434.4 89.6271V94.954C434.4 97.1921 433.927 98.9192 432.975 100.134C432.046 101.349 430.662 101.963 428.828 101.964C427.017 101.964 425.635 101.35 424.681 100.134C423.729 98.9191 423.25 97.1932 423.25 94.954V89.6271C423.25 87.4116 423.728 85.7079 424.681 84.5166C425.634 83.3018 427.018 82.6944 428.828 82.6944ZM350.46 91.8123L351.822 95.9943H344.421L345.776 91.8123L348.135 84.3002L350.46 91.8123ZM229.728 83.0156C230.943 83.0156 231.911 83.3475 232.626 84.0139C233.34 84.6574 233.701 85.5801 233.701 86.7717V88.3076C233.7 89.4743 233.34 90.4025 232.626 91.0932C231.911 91.7605 230.944 92.0916 229.728 92.0916H225.225V83.0156H229.728Z" fill="#2563EB"/>
<path d="M456.732 20.3321C462.337 20.3321 466.798 22.1623 470.115 25.8226C473.49 29.4258 475.177 34.4016 475.177 40.75V68.7174H460.593V42.7232C460.593 39.5204 459.763 37.0325 458.105 35.2595C456.446 33.4865 454.216 32.6 451.413 32.6C448.611 32.6 446.38 33.4865 444.722 35.2595C443.063 37.0325 442.234 39.5204 442.234 42.7232V68.7174H427.564V20.8469H442.234V27.1953C443.721 25.0791 445.722 23.4205 448.239 22.2195C450.755 20.9612 453.586 20.3321 456.732 20.3321Z" fill="white"/>
<path d="M409.64 15.871C407.067 15.871 404.951 15.1275 403.292 13.6405C401.691 12.0963 400.89 10.2089 400.89 7.97842C400.89 5.6907 401.691 3.80333 403.292 2.31631C404.951 0.772105 407.067 0 409.64 0C412.157 0 414.216 0.772105 415.817 2.31631C417.476 3.80333 418.305 5.6907 418.305 7.97842C418.305 10.2089 417.476 12.0963 415.817 13.6405C414.216 15.1275 412.157 15.871 409.64 15.871ZM416.933 20.8468V68.7173H402.263V20.8468H416.933Z" fill="white"/>
<path d="M396.668 20.8468L383.714 68.7173H367.5L359.95 37.6615L352.143 68.7173H336.015L322.975 20.8468H337.645L344.422 55.0768L352.487 20.8468H368.014L376.164 54.9052L382.856 20.8468H396.668Z" fill="white"/>
<path d="M304.173 68.7173L289.589 48.6426V68.7173H274.919V5.23315H289.589V40.321L304.087 20.8468H322.189L302.286 44.8679L322.36 68.7173H304.173Z" fill="white"/>
<path d="M246.555 69.4036C242.38 69.4036 238.663 68.6887 235.403 67.2589C232.143 65.8291 229.569 63.8845 227.682 61.4252C225.794 58.9087 224.736 56.1063 224.508 53.0179H239.006C239.177 54.6765 239.95 56.0205 241.322 57.05C242.695 58.0794 244.382 58.5942 246.384 58.5942C248.214 58.5942 249.615 58.251 250.587 57.5647C251.617 56.8212 252.132 55.8775 252.132 54.7337C252.132 53.361 251.417 52.3601 249.987 51.731C248.557 51.0447 246.241 50.3012 243.038 49.5005C239.606 48.6998 236.747 47.8705 234.459 47.0126C232.171 46.0975 230.198 44.6963 228.54 42.8089C226.881 40.8644 226.052 38.2621 226.052 35.0021C226.052 32.2568 226.795 29.7689 228.282 27.5384C229.826 25.2507 232.057 23.4491 234.974 22.1337C237.948 20.8182 241.465 20.1605 245.526 20.1605C251.531 20.1605 256.25 21.6475 259.681 24.6216C263.17 27.5956 265.172 31.5419 265.686 36.4605H252.132C251.903 34.8019 251.159 33.4865 249.901 32.5142C248.7 31.5419 247.099 31.0558 245.097 31.0558C243.381 31.0558 242.066 31.3989 241.151 32.0853C240.236 32.7144 239.778 33.6009 239.778 34.7447C239.778 36.1174 240.493 37.1468 241.923 37.8331C243.41 38.5195 245.697 39.2058 248.786 39.8921C252.332 40.8072 255.22 41.7223 257.451 42.6373C259.681 43.4952 261.626 44.9251 263.284 46.9268C265 48.8714 265.887 51.5023 265.944 54.8194C265.944 57.6219 265.143 60.1384 263.542 62.3689C261.997 64.5422 259.738 66.258 256.764 67.5163C253.847 68.7745 250.445 69.4036 246.555 69.4036Z" fill="white"/>
<path d="M165.938 44.6963C165.938 39.7777 166.853 35.4596 168.683 31.7421C170.571 28.0246 173.116 25.1649 176.319 23.1632C179.521 21.1614 183.096 20.1605 187.042 20.1605C190.417 20.1605 193.362 20.8468 195.879 22.2195C198.452 23.5921 200.426 25.3937 201.798 27.6242V20.8468H216.468V68.7173H201.798V61.94C200.368 64.1705 198.367 65.9721 195.793 67.3447C193.276 68.7173 190.331 69.4036 186.957 69.4036C183.067 69.4036 179.521 68.4028 176.319 66.401C173.116 64.3421 170.571 61.4538 168.683 57.7363C166.853 53.9616 165.938 49.6149 165.938 44.6963ZM201.798 44.7821C201.798 41.1217 200.769 38.2335 198.71 36.1174C196.708 34.0012 194.249 32.9431 191.332 32.9431C188.415 32.9431 185.927 34.0012 183.868 36.1174C181.866 38.1763 180.866 41.036 180.866 44.6963C180.866 48.3566 181.866 51.2735 183.868 53.4468C185.927 55.563 188.415 56.621 191.332 56.621C194.249 56.621 196.708 55.563 198.71 53.4468C200.769 51.3307 201.798 48.4424 201.798 44.7821Z" fill="white"/>
<path d="M160.684 56.2779V68.7173H153.22C147.901 68.7173 143.754 67.4305 140.78 64.8568C137.806 62.2259 136.319 57.9651 136.319 52.0742V33.0289H130.486V20.8468H136.319V9.17947H150.989V20.8468H160.598V33.0289H150.989V52.2458C150.989 53.6756 151.333 54.7051 152.019 55.3342C152.705 55.9633 153.849 56.2779 155.45 56.2779H160.684Z" fill="white"/>
<path d="M56.1666 100.651H74.947L81.0629 72.6619L88.3726 100.651H108.633L121.535 42.0408V80.1531C121.535 95.9465 108.732 108.75 92.9385 108.75H7.14912C3.20077 108.75 0 105.549 0 101.6V47.2699C0 47.0997 0.0115917 46.9299 0.0139631 46.7603H6.93269V100.651H27.0117V46.7603H40.9189V36.5812L56.1666 100.651Z" fill="#2563EB"/>
<path d="M107.237 11.5244C115.133 11.5244 121.535 17.9259 121.535 25.8226V31.0099H105.903L102.392 55.0195L99.1242 78.31L93.895 55.0195L89.6223 31.0099H70.1926L74.7655 48.6593L73.2226 55.0195L67.2185 78.31L62.5268 55.0195L59.3782 31.0099H3.91665C9.83638 19.4453 21.8615 11.5244 35.7456 11.5244H107.237Z" fill="#F59E0B"/>
</svg>
